<svg width="36" height="30" viewBox="0 0 36 30" fill="none" xmlns="http://www.w3.org/2000/svg">
<path fill-rule="evenodd" clip-rule="evenodd" d="M6.6728 0H2.23453C1.64211 0.000589248 1.07416 0.196965 0.655257 0.54605C0.236357 0.895137 0.000706641 1.36843 0 1.86211V5.56113C0.000706641 6.05479 0.236357 6.52811 0.655257 6.87721C1.07416 7.22625 1.64211 7.42266 2.23453 7.42324H6.6728C7.26525 7.42266 7.83316 7.22631 8.25209 6.87721C8.67101 6.52811 8.9067 6.05484 8.9074 5.56113V1.86211C8.9067 1.36842 8.67101 0.895131 8.25209 0.546046C7.83316 0.196962 7.26525 0.000589219 6.6728 0ZM6.6728 11.2887H2.23453C1.64211 11.2893 1.07416 11.4857 0.655257 11.8347C0.236357 12.1838 0.000706641 12.6571 0 13.1508V16.8492C0.000595547 17.3429 0.23621 17.8163 0.655137 18.1654C1.07407 18.5145 1.64208 18.7109 2.23453 18.7113H6.6728C7.26525 18.7109 7.83331 18.5145 8.25223 18.1654C8.67115 17.8163 8.90684 17.3429 8.9074 16.8492V13.1508C8.9067 12.6571 8.67101 12.1838 8.25209 11.8347C7.83316 11.4856 7.26525 11.2893 6.6728 11.2887ZM6.6728 22.5773H2.23453C1.64211 22.5779 1.07416 22.7743 0.655257 23.1234C0.236357 23.4725 0.000706641 23.9458 0 24.4395V28.1379C0.000595547 28.6316 0.23621 29.1049 0.655137 29.454C1.07407 29.8032 1.64208 29.9995 2.23453 30H6.6728C7.26525 29.9995 7.83331 29.8032 8.25223 29.4541C8.67115 29.105 8.90684 28.6316 8.9074 28.1379V24.4395C8.9067 23.9457 8.67101 23.4725 8.25209 23.1234C7.83316 22.7743 7.26525 22.5779 6.6728 22.5773ZM33.3087 0H28.8705C28.278 0.000589219 27.7101 0.196962 27.2912 0.546046C26.8722 0.895131 26.6366 1.36842 26.6359 1.86211V5.56113C26.6366 6.05484 26.8722 6.52811 27.2912 6.87721C27.7101 7.22631 28.278 7.42266 28.8705 7.42324H33.3087C33.9011 7.42266 34.4691 7.22625 34.888 6.87721C35.3069 6.52811 35.5425 6.05479 35.5433 5.56113V1.86211C35.5425 1.36843 35.3069 0.895137 34.888 0.54605C34.4691 0.196965 33.9011 0.000589248 33.3087 0ZM33.3087 11.2887H28.8705C28.278 11.2893 27.7101 11.4856 27.2912 11.8347C26.8722 12.1838 26.6366 12.6571 26.6359 13.1508V16.8492C26.6364 17.3429 26.8721 17.8163 27.291 18.1654C27.7099 18.5145 28.278 18.7109 28.8705 18.7113H33.3087C33.9012 18.7109 34.4692 18.5145 34.8881 18.1654C35.3071 17.8163 35.5427 17.3429 35.5433 16.8492V13.1508C35.5425 12.6571 35.3069 12.1838 34.888 11.8347C34.4691 11.4857 33.9011 11.2893 33.3087 11.2887ZM33.3087 22.5773H28.8705C28.278 22.5779 27.7101 22.7743 27.2912 23.1234C26.8722 23.4725 26.6366 23.9457 26.6359 24.4395V28.1379C26.6364 28.6316 26.8721 29.105 27.291 29.4541C27.7099 29.8032 28.278 29.9995 28.8705 30H33.3087C33.9012 29.9995 34.4692 29.8032 34.8881 29.454C35.3071 29.1049 35.5427 28.6316 35.5433 28.1379V24.4395C35.5425 23.9458 35.3069 23.4725 34.888 23.1234C34.4691 22.7743 33.9011 22.5779 33.3087 22.5773ZM19.9908 0H15.5525C14.96 0.000589219 14.3921 0.196962 13.9732 0.546046C13.5543 0.895131 13.3186 1.36842 13.3179 1.86211V5.56113C13.3186 6.05484 13.5543 6.52811 13.9732 6.87721C14.3921 7.22631 14.96 7.42266 15.5525 7.42324H19.9908C20.5831 7.42266 21.1511 7.22625 21.57 6.87715C21.9889 6.52811 22.2246 6.05479 22.2253 5.56113V1.86211C22.2246 1.36843 21.9889 0.895148 21.57 0.546067C21.1511 0.196985 20.5831 0.000604723 19.9908 0ZM19.9908 11.2887H15.5525C14.96 11.2893 14.3921 11.4856 13.9732 11.8347C13.5543 12.1838 13.3186 12.6571 13.3179 13.1508V16.8492C13.3185 17.3429 13.5541 17.8163 13.9731 18.1654C14.392 18.5145 14.96 18.7109 15.5525 18.7113H19.9908C20.5832 18.7109 21.1512 18.5145 21.5701 18.1654C21.9891 17.8163 22.2247 17.3429 22.2253 16.8492V13.1508C22.2246 12.6571 21.9889 12.1838 21.57 11.8348C21.1511 11.4857 20.5831 11.2893 19.9908 11.2887ZM19.9908 22.5773H15.5525C14.96 22.5779 14.3921 22.7743 13.9732 23.1234C13.5543 23.4725 13.3186 23.9457 13.3179 24.4395V28.1379C13.3185 28.6316 13.5541 29.105 13.9731 29.4541C14.392 29.8032 14.96 29.9995 15.5525 30H19.9908C20.5832 29.9995 21.1512 29.8032 21.5701 29.454C21.9891 29.1049 22.2247 28.6316 22.2253 28.1379V24.4395C22.2246 23.9458 21.9889 23.4725 21.57 23.1234C21.1511 22.7743 20.5831 22.5779 19.9908 22.5773Z" fill="#A3291C" fill-opacity="0.5"/>
</svg>
